<svg xmlns="http://www.w3.org/2000/svg" version="1.1" xmlns:xlink="http://www.w3.org/1999/xlink" xmlns:svgjs="http://svgjs.dev/svgjs" width="2000" height="439" viewBox="0 0 2000 439"><g transform="matrix(1,0,0,1,-1.2121212121210192,-1.2216518614440872)"><svg viewBox="0 0 396 87" data-background-color="#000000" preserveAspectRatio="xMidYMid meet" height="439" width="2000" xmlns="http://www.w3.org/2000/svg" xmlns:xlink="http://www.w3.org/1999/xlink"><g id="tight-bounds" transform="matrix(1,0,0,1,0.23999999999995225,0.24210412743880738)"><svg viewBox="0 0 395.52 86.51579174512239" height="86.51579174512239" width="395.52"><g><svg viewBox="0 0 522.2210475708026 114.230297827051" height="86.51579174512239" width="395.52"><g transform="matrix(1,0,0,1,126.70104757080267,15.787255343680712)"><svg viewBox="0 0 395.52 82.65578713968958" height="82.65578713968958" width="395.52"><g id="textblocktransform"><svg viewBox="0 0 395.52 82.65578713968958" height="82.65578713968958" width="395.52" id="textblock"><g><svg viewBox="0 0 395.52 82.65578713968958" height="82.65578713968958" width="395.52"><g transform="matrix(1,0,0,1,0,0)"><svg width="395.52" viewBox="2.05 -37.1 181.63 37.7" height="82.65578713968958" data-palette-color="#ffffff"><path d="M2.3 0.2L2.55-1.75Q5.4-2.15 5.4-4.7L5.4-4.7 5.4-18.2Q5.35-19.4 4.73-19.78 4.1-20.15 2.25-20.25L2.25-20.25 2.05-20.55 2.4-22.25 5.4-22.8 5.4-23Q5.4-27.3 6.83-30.5 8.25-33.7 10.83-35.4 13.4-37.1 16.9-37.1L16.9-37.1Q18.4-37.1 19.68-36.9 20.95-36.7 21.68-36.48 22.4-36.25 22.6-36.15L22.6-36.15 22.7-35.7Q22.55-35.45 22.08-34.52 21.6-33.6 21.15-32.45L21.15-32.45 20.6-32.3Q20.4-32.45 19.63-32.9 18.85-33.35 17.57-33.75 16.3-34.15 14.85-34.15L14.85-34.15Q12-34.15 10.6-31.88 9.2-29.6 9.1-24.9L9.1-24.9 9.05-22.45Q11.65-22.45 13.5-22.5 15.35-22.55 15.95-22.6L15.95-22.6 16.1-22.45 15.6-19.8Q15.05-19.85 13.28-19.9 11.5-19.95 9-19.95L9-19.95 8.8-4.9Q8.8-3.5 9.43-2.83 10.05-2.15 11.35-2.15L11.35-2.15Q12.55-2.15 13.33-2.2 14.1-2.25 14.35-2.25L14.35-2.25 14.45-2.05 14.1 0.1Q13.4 0.1 11.55 0.05 9.7 0 7.9 0L7.9 0Q6.15 0 4.48 0.08 2.8 0.15 2.3 0.2L2.3 0.2ZM18.7 0.6L18.9-1.45Q20.4-1.85 21.05-2.63 21.7-3.4 21.7-4.7L21.7-4.7 21.7-17.4Q21.7-20.1 19.85-20.1L19.85-20.1Q19.5-20.1 19.1-20.03 18.7-19.95 18.6-19.9L18.6-19.9 18.8-21.75Q20.9-22.05 23.12-22.55 25.35-23.05 26-23.2L26-23.2 26.25-22.6Q25.8-21.55 25.45-16.18 25.1-10.8 25.1-4.9L25.1-4.9Q25.1-3.45 25.5-2.78 25.9-2.1 26.85-2.1L26.85-2.1Q27.4-2.1 27.9-2.15 28.4-2.2 28.6-2.2L28.6-2.2 28.7-2 28.3 0.15Q27.85 0.1 26.6 0.05 25.35 0 23.85 0L23.85 0Q22.55 0 20.87 0.25 19.2 0.5 18.7 0.6L18.7 0.6ZM23.1-29.1Q21.95-29.1 21.3-29.85 20.65-30.6 20.65-31.65L20.65-31.65Q20.65-32.85 21.5-33.73 22.35-34.6 23.6-34.6L23.6-34.6Q24.75-34.6 25.4-33.85 26.05-33.1 26.05-32.05L26.05-32.05Q26.05-30.85 25.2-29.98 24.35-29.1 23.1-29.1L23.1-29.1ZM31.95 0.6L32.14-1.45Q33.55-1.85 34.12-2.45 34.7-3.05 34.82-3.9 34.95-4.75 34.95-6.75L34.95-6.75 34.95-31.3Q34.95-32.85 34.59-33.4 34.24-33.95 33.14-33.95L33.14-33.95Q32.89-33.95 31.99-33.85L31.99-33.85 31.84-33.95 32.05-35.65Q36.24-36.25 39.45-37.1L39.45-37.1 39.74-36.45Q39.2-35.6 38.77-25.75 38.34-15.9 38.34-4.9L38.34-4.9Q38.34-3.4 38.74-2.75 39.14-2.1 40.09-2.1L40.09-2.1 41.84-2.2 41.95-2 41.55 0.15Q38.24 0 37.09 0L37.09 0Q35.39 0 31.95 0.6L31.95 0.6ZM59.04-1.45Q60.54-1.85 61.19-2.63 61.84-3.4 61.84-4.7L61.84-4.7 62.04-14.6Q62.04-17.1 60.97-18.45 59.89-19.8 57.89-19.8L57.89-19.8Q56.29-19.8 54.64-18.98 52.99-18.15 51.74-17.2L51.74-17.2Q51.29-6.85 51.29-4.9L51.29-4.9Q51.29-3.35 51.69-2.73 52.09-2.1 53.09-2.1L53.09-2.1Q53.64-2.1 54.14-2.15 54.64-2.2 54.84-2.2L54.84-2.2 54.94-2 54.49 0.15Q54.04 0.1 52.74 0.05 51.44 0 49.94 0L49.94 0Q48.29 0 46.89 0.05 45.49 0.1 44.99 0.1L44.99 0.1 45.29-1.95Q46.74-2.1 47.32-2.7 47.89-3.3 47.89-4.7L47.89-4.7 47.89-16.9Q47.89-18.6 47.34-19.28 46.79-19.95 45.44-19.95L45.44-19.95 44.89-19.95 44.74-20.15 44.89-21.8Q47.04-22.15 49.17-22.63 51.29-23.1 51.89-23.25L51.89-23.25 52.19-22.85Q52.09-22.55 51.89-21.58 51.69-20.6 51.64-19.55L51.64-19.55 51.74-19.4Q57.34-23.2 59.09-23.2L59.09-23.2Q61.49-23.2 63.14-22.18 64.79-21.15 65.49-19.25L65.49-19.25Q67.29-20.55 69.54-21.88 71.79-23.2 73.04-23.2L73.04-23.2Q76.19-23.2 78.04-21.45 79.89-19.7 79.89-16.75L79.89-16.75Q79.89-16.25 79.59-12.15L79.59-12.15Q79.19-6.95 79.19-4.9L79.19-4.9Q79.19-3.35 79.59-2.73 79.99-2.1 80.99-2.1L80.99-2.1Q81.54-2.1 82.04-2.15 82.54-2.2 82.74-2.2L82.74-2.2 82.84-2 82.39 0.15Q81.94 0.1 80.64 0.05 79.34 0 77.84 0L77.84 0Q76.54 0 74.97 0.13 73.39 0.25 72.89 0.3L72.89 0.3 73.14-1.75Q74.59-2 75.19-2.65 75.79-3.3 75.79-4.7L75.79-4.7 75.99-14.6Q75.99-17.1 74.92-18.45 73.84-19.8 71.84-19.8L71.84-19.8Q69.24-19.8 65.79-17.3L65.79-17.3 65.24-4.9Q65.24-3.45 65.64-2.78 66.04-2.1 66.99-2.1L66.99-2.1Q67.54-2.1 68.04-2.15 68.54-2.2 68.74-2.2L68.74-2.2 68.84-2 68.44 0.15Q67.99 0.1 66.74 0.05 65.49 0 63.99 0L63.99 0Q62.69 0 61.02 0.25 59.34 0.5 58.84 0.6L58.84 0.6 59.04-1.45ZM92.94 0.6Q91.34 0.6 90.02 0.38 88.69 0.15 87.94-0.1 87.19-0.35 86.99-0.45L86.99-0.45 86.84-0.8Q86.99-1.55 87.19-3.9 87.39-6.25 87.44-7.5L87.44-7.5 89.19-7.75Q89.19-4.45 90.29-3.1 91.39-1.75 94.04-1.75L94.04-1.75Q95.94-1.75 97.24-2.6 98.54-3.45 98.54-4.7L98.54-4.7Q98.54-5.95 97.37-6.98 96.19-8 92.74-9.85L92.74-9.85Q89.89-11.3 88.59-12.8 87.29-14.3 87.29-16.1L87.29-16.1Q87.29-18.1 88.49-19.73 89.69-21.35 91.79-22.28 93.89-23.2 96.49-23.2L96.49-23.2Q97.69-23.2 98.79-23.03 99.89-22.85 100.59-22.65 101.29-22.45 101.49-22.4L101.49-22.4 101.59-22.15Q101.49-21.65 101.14-19.88 100.79-18.1 100.64-16.05L100.64-16.05 98.79-15.9Q98.79-16.05 98.84-16.5 98.89-16.95 98.89-17.35L98.89-17.35Q98.89-19.15 97.92-19.98 96.94-20.8 94.79-20.8L94.79-20.8Q93.09-20.8 91.92-20 90.74-19.2 90.74-18.05L90.74-18.05Q90.74-16.85 91.77-15.8 92.79-14.75 95.09-13.55L95.09-13.55Q99.14-11.4 100.62-9.93 102.09-8.45 102.09-6.55L102.09-6.55Q102.09-4.65 100.84-3 99.59-1.35 97.47-0.38 95.34 0.6 92.94 0.6L92.94 0.6ZM105.84-0.3L109.79-4.7Q113.99-9.45 115.96-12.73 117.94-16 117.94-18.1L117.94-18.1Q117.94-19.9 116.94-20.9 115.94-21.9 114.19-21.9L114.19-21.9Q112.49-21.9 110.84-20.7 109.19-19.5 108.04-17.45L108.04-17.45 107.59-17.45 107.04-19.7Q108.29-22.1 110.69-23.68 113.09-25.25 115.49-25.25L115.49-25.25Q118.59-25.25 120.46-23.6 122.34-21.95 122.34-19.25L122.34-19.25Q122.34-17.75 121.36-15.83 120.39-13.9 118.14-11 115.89-8.1 111.69-3.4L111.69-3.4 111.89-3.05 119.54-3.05Q121.44-3.05 122.44-3.4 123.44-3.75 124.04-4.7 124.64-5.65 125.14-7.6L125.14-7.6 127.14-7.85Q126.94-7.15 126.44-4.73 125.94-2.3 125.69 0L125.69 0 125.09 0.35Q123.19 0.3 117.46 0.15 111.74 0 109.04 0L109.04 0 106.34 0.6 105.84-0.3ZM144.84 0.6Q140.44 0.6 137.14-1.3 133.84-3.2 132.04-6.68 130.24-10.15 130.24-14.85L130.24-14.85Q130.24-20 132.44-24 134.64-28 138.64-30.23 142.64-32.45 147.79-32.45L147.79-32.45Q149.64-32.45 151.79-32.18 153.94-31.9 155.49-31.63 157.04-31.35 157.49-31.25L157.49-31.25 157.69-30.95Q157.59-30.65 157.34-29.5 157.09-28.35 156.81-26.5 156.54-24.65 156.39-22.6L156.39-22.6 154.04-22.4Q154.09-22.65 154.14-23.38 154.19-24.1 154.19-25.1L154.19-25.1Q154.19-27.4 152.41-28.45 150.64-29.5 146.64-29.5L146.64-29.5Q140.94-29.5 137.76-26.08 134.59-22.65 134.59-16.45L134.59-16.45Q134.59-12.1 135.99-8.8 137.39-5.5 139.99-3.7 142.59-1.9 145.99-1.9L145.99-1.9Q147.79-1.9 149.29-2.33 150.79-2.75 151.81-3.25 152.84-3.75 152.84-3.8L152.84-3.8 152.84-9.9Q152.84-11.6 152.31-12.1 151.79-12.6 150.09-12.6L150.09-12.6 146.64-12.6 146.54-12.8 146.99-15.3Q147.59-15.25 149.54-15.18 151.49-15.1 153.34-15.1L153.34-15.1Q154.69-15.1 155.99-15.2 157.29-15.3 157.64-15.35L157.64-15.35 157.84-14.25Q156.94-13.5 156.61-11.88 156.29-10.25 156.29-6.55L156.29-6.55Q156.29-3.65 156.64-2.15L156.64-2.15 156.34-1.7Q156.34-1.65 154.56-1.03 152.79-0.4 150.21 0.1 147.64 0.6 144.84 0.6L144.84 0.6ZM172.08 0.6Q169.23 0.6 167.03-0.8 164.83-2.2 163.61-4.73 162.38-7.25 162.38-10.5L162.38-10.5Q162.38-14 163.91-16.93 165.43-19.85 168.08-21.53 170.73-23.2 173.98-23.2L173.98-23.2Q176.78-23.2 179.01-21.8 181.23-20.4 182.46-17.88 183.68-15.35 183.68-12.1L183.68-12.1Q183.68-8.6 182.16-5.68 180.63-2.75 177.98-1.07 175.33 0.6 172.08 0.6L172.08 0.6ZM173.48-1.85Q176.28-1.85 177.93-4.13 179.58-6.4 179.58-10.3L179.58-10.3Q179.58-13.25 178.68-15.58 177.78-17.9 176.16-19.2 174.53-20.5 172.48-20.5L172.48-20.5Q169.68-20.5 168.03-18.2 166.38-15.9 166.38-11.95L166.38-11.95Q166.38-9 167.28-6.7 168.18-4.4 169.78-3.13 171.38-1.85 173.48-1.85L173.48-1.85Z" opacity="1" transform="matrix(1,0,0,1,0,0)" fill="#ffffff" class="wordmark-text-0" data-fill-palette-color="primary" id="text-0"></path></svg></g></svg></g></svg></g></svg></g><g><svg viewBox="0 0 107.18799996601332 114.230297827051" height="114.230297827051" width="107.18799996601332"><g><svg xmlns="http://www.w3.org/2000/svg" xmlns:xlink="http://www.w3.org/1999/xlink" version="1.2" baseProfile="tiny" x="0" y="0" viewBox="3.082 0 93.83500000000001 100" xml:space="preserve" height="114.230297827051" width="107.18799996601332" class="icon-icon-0" data-fill-palette-color="accent" id="icon-0"><path d="M93.35 0v2.587c0 1.559-1.157 2.823-2.587 2.823h-4.956c-1.429 0-2.588-1.264-2.588-2.823V0H16.866v2.587c0 1.559-1.158 2.823-2.588 2.823H9.322c-1.429 0-2.587-1.264-2.587-2.823V0H3.082v100h3.659c-0.001-0.021-0.006-0.039-0.006-0.059v-2.694c0-1.56 1.158-2.824 2.587-2.824h4.956c1.43 0 2.588 1.265 2.588 2.824v2.694c0 0.02-0.005 0.038-0.006 0.059h66.364c0-0.021-0.006-0.039-0.006-0.059v-2.694c0-1.56 1.159-2.824 2.588-2.824h4.956c1.43 0 2.587 1.265 2.587 2.824v2.694c0 0.02-0.005 0.038-0.005 0.059h3.573V0H93.35zM16.866 86.032c0 1.559-1.158 2.823-2.588 2.823H9.322c-1.429 0-2.587-1.265-2.587-2.823v-2.693c0-1.56 1.158-2.824 2.587-2.824h4.956c1.43 0 2.588 1.265 2.588 2.824V86.032zM16.866 72.124c0 1.561-1.158 2.824-2.588 2.824H9.322c-1.429 0-2.587-1.264-2.587-2.824v-2.693c0-1.559 1.158-2.823 2.587-2.823h4.956c1.43 0 2.588 1.265 2.588 2.823V72.124zM16.866 58.217c0 1.561-1.158 2.824-2.588 2.824H9.322c-1.429 0-2.587-1.264-2.587-2.824v-2.694c0-1.559 1.158-2.823 2.587-2.823h4.956c1.43 0 2.588 1.265 2.588 2.823V58.217zM16.866 44.31c0 1.559-1.158 2.823-2.588 2.823H9.322c-1.429 0-2.587-1.264-2.587-2.823v-2.694c0-1.56 1.158-2.824 2.587-2.824h4.956c1.43 0 2.588 1.264 2.588 2.824V44.31zM16.866 30.402c0 1.56-1.158 2.824-2.588 2.824H9.322c-1.429 0-2.587-1.264-2.587-2.824v-2.694c0-1.56 1.158-2.824 2.587-2.824h4.956c1.43 0 2.588 1.264 2.588 2.824V30.402zM16.866 16.495c0 1.559-1.158 2.823-2.588 2.823H9.322c-1.429 0-2.587-1.264-2.587-2.823v-2.694c0-1.56 1.158-2.824 2.587-2.824h4.956c1.43 0 2.588 1.264 2.588 2.824V16.495zM79.109 90.546c0 1.832-1.139 3.975-2.966 3.975H24.542c-1.828 0-3.651-2.143-3.651-3.975V56.081c0-1.831 1.823-2.656 3.651-2.656h51.602c1.827 0 2.966 0.825 2.966 2.656V90.546zM79.109 43.066c0 1.749-1.37 3.509-3.279 3.509H24.11c-1.909 0-3.22-1.76-3.22-3.509V8.229c0-1.749 1.311-2.75 3.22-2.75h51.72c1.909 0 3.279 1 3.279 2.75V43.066zM93.35 86.032c0 1.559-1.157 2.823-2.587 2.823h-4.956c-1.429 0-2.588-1.265-2.588-2.823v-2.693c0-1.56 1.159-2.824 2.588-2.824h4.956c1.43 0 2.587 1.265 2.587 2.824V86.032zM93.35 72.124c0 1.561-1.157 2.824-2.587 2.824h-4.956c-1.429 0-2.588-1.264-2.588-2.824v-2.693c0-1.559 1.159-2.823 2.588-2.823h4.956c1.43 0 2.587 1.265 2.587 2.823V72.124zM93.35 58.217c0 1.561-1.157 2.824-2.587 2.824h-4.956c-1.429 0-2.588-1.264-2.588-2.824v-2.694c0-1.559 1.159-2.823 2.588-2.823h4.956c1.43 0 2.587 1.265 2.587 2.823V58.217zM93.35 44.31c0 1.559-1.157 2.823-2.587 2.823h-4.956c-1.429 0-2.588-1.264-2.588-2.823v-2.694c0-1.56 1.159-2.824 2.588-2.824h4.956c1.43 0 2.587 1.264 2.587 2.824V44.31zM93.35 30.402c0 1.56-1.157 2.824-2.587 2.824h-4.956c-1.429 0-2.588-1.264-2.588-2.824v-2.694c0-1.56 1.159-2.824 2.588-2.824h4.956c1.43 0 2.587 1.264 2.587 2.824V30.402zM93.35 16.495c0 1.559-1.157 2.823-2.587 2.823h-4.956c-1.429 0-2.588-1.264-2.588-2.823v-2.694c0-1.56 1.159-2.824 2.588-2.824h4.956c1.43 0 2.587 1.264 2.587 2.824V16.495z" fill="#ffffff" data-fill-palette-color="accent"></path></svg></g></svg></g></svg></g><defs></defs></svg><rect width="395.52" height="86.51579174512239" fill="none" stroke="none" visibility="hidden"></rect></g></svg></g></svg>